<mxfile host="app.diagrams.net" modified="2024-04-19T07:59:20.027Z" agent="Mozilla/5.0 (Windows NT 10.0; Win64; x64) AppleWebKit/537.36 (KHTML, like Gecko) Chrome/123.0.0.0 Safari/537.36" etag="n95W1qd2MSi4H3LzbRlF" version="24.2.5" type="device">
  <diagram name="Page-1" id="Xmzz9MCKAvokAwQv124G">
    <mxGraphModel dx="1619" dy="753" grid="1" gridSize="10" guides="1" tooltips="1" connect="1" arrows="1" fold="1" page="1" pageScale="1" pageWidth="827" pageHeight="1169" math="0" shadow="0">
      <root>
        <mxCell id="0" />
        <mxCell id="1" parent="0" />
        <mxCell id="6mqftQX94FAFTjuM4J4H-3" value="" style="shape=image;verticalLabelPosition=bottom;labelBackgroundColor=default;verticalAlign=top;aspect=fixed;imageAspect=0;image=data:image/png,iVBORw0KGgoAAAANSUhEUgAAARwAAACxCAMAAAAh3/JWAAAA/1BMVEX///8AAAA3c6X/0kL/zz43dan/00P/10f/zj03cKD/1UU3d6z/2Ur/zDv/20w3c6b29vYnJyeFhYWqqqo2bJk0NDTX19fz8/Pe3t5LS0v/+u3s7Ozl5eXZ2dm+vr6wsLA7OzuQkJCZmZnLy8uNjY15eXnn8PYdHR1wcHBGRkZhYWFXV1e4uLguLi6hoaFlZWX/6qT/9toSEhJmlcBJeqP/8M6Ip8P/4nYhISFylLT/3mf/z0u2yt3/44MjbKP/ySlFg7X/8MLT4Ov/12y8zuB7osaivNRfjLMiZ5tAfbC3zN//5pbf6PD/11f/6a0eX5D/4GD/34n/1mD/+eb/3HgyMHtnAAAQW0lEQVR4nO2dC1ubyP7HZ6q11epKoOEihDuGWwZLW+ue2mjdaj2nt393z/t/Lf+Z4RIgkGiMkpPwffZZYwKU+fCb320mLQCdOnXq1KlTp4fo+OrLzen1W6rr05vzq+O272hV9OX68tWr8fgV1XOs8Xj8/PL6C9P2jbWu49NXKZZMz6kOD8fj6+9t3127unlVVcbmkOA5Fdq+wRZ1PW5k84xo/G5zjSdhMx6Pa+yGwnl2+GxTXfMVhXJ5fnV+2cDm2e74a9t32ZKuKRtqGm9LbJ7lbHZ3b7+0fZvtiBAZJ2P/Pi6yeTZhs7t73fJdtiRqLqlPuXxeazdY79q9ybZE4SThiPn38wY2mwxnfENffhk3sdlkOK9e/Qe/umqaU5sOZ3z59rLZbjYcThalGthsOpwZc2p39/Vmw8ntJk+Md3c7y5mGU8NmU+EcT+t8XGWzqdOqRle3VTabBUeoMZhc/7mtsiFwPn9K9O1z2zf/qPp+ejmeqSoaCufkBdYe1s7eSdsjeDQxpw394roYnrJJ4Ozvv6Da2/r7qO1RPI6+X766D5sSnBe58fxYSzrH/16ETT6tUjh7W3+1PZDH0P3s5vXrApy9CZudne2fbY9k+bpZwN+U4KRsdrZ21m5iHS9mNxM4eymcra3ttQtZpwuyyeDkdoO10/ZglizmckE2KZwim62LN20PZ7m6Gi/I5vWfBE6JzdbLb20PZ7k6XZTNrxsAvu3k/oZoe3vNovnbBdm8/nUFwF87ZTbbW20PZ6liFmbzFYCjF0U2BM7Lf9oe0DJ1PL1X4E5sXv/6jovynQqb7Yv3bQ9omZr443uyIavFH3ZKc2rt4HwZLzSnXmOHA95vTQJVwublesE5H89hQ5pctyUwv369uyHbAo/2dqps1gxOWlhNsTm8vX339c86nd5c0R2TRz+m2awjnKm1u93br+dzdm59LrDZytisIZwpNofP5mxM+ufnv7br2KwtnAKbd4nVvDn59OFfNfqxh0vMvTo2awYHO+SpOfWMbM05Ovm/P1Lt/7G/vz/ph+5VCqoCm4P1glOz/+b2HL//JkeTAsr5vJjBZs3gXI2nYjhZrHv/Rw2b/bls1gzO8bjK5hZX2/8syGbN4DBTud8t9safFmRzcLBWhSe4PKzkxe+mDGe/6nCa2XxsezjL1fVhpWb4E4Cfi7K5+G/bw1muzsdlNrenAHybF6iKhXiBzcHFmq1cHU92pu9mcD4syObgYt0Wrt6W6/AqnHux+d32YJatL+NSj6IMZ8rfzGJzsG4rM1hfD0v9myKce7JZO8OhO9oKfb8inHuy+bhuHofourjfbwrOXdkcHKzfpCL687YCZ//+bC4+ricbYjs1cGbnfttlNBe/13FOJfry7jZTBqfMZqdoLrStVdDBx5P1qqmquro5TXSO4byostk6OWrWP+trNDXCcCqF+DruaFtQH15UmxRbJ2+m1fZttqMUzlScKnviNWtP3FUJnFKc2pmOUxsMp66ZXs5vNhdOMxuMZdOnVSObix+f/r5Yx5boXfWh2W62yZeH3n/cZDh7jXaT5DufLzYcTu0iTNYH3XTLqV1oOEiP2GA4JztNizAXyfcV3/+vTKuQ09QlX/JN40aKg4+k/D76m3Qp/gc2ZAsjBvSXfdHfWw0NnJcHL08+//xIDOdi+kuvyrLv48HyhvFwWddC0Exe/L3VwIb0tWiaU2M4DnSWdSPLEt+D+nKuZPVgfqm/thvYZK2/KTYahHC0nBtZongIrcFgMPcvxRSU6UMYQVaSvw9R0CQ8Ohhkn/zc225YECdoDipfO1OMM3K2/rCRPIJcGJ8ZEKJ5x3mwp0tEQRDQn5Kn93tx8rhFmMjNDz862bvY3q5hg6fV70pXlE/P1pc6sIeL8fBNxUMIw3lHcrBelEcGhy2e8ebbj+2L1Mck3ob0i39Pb1CS/eRsb2nDWo6Su7LxnGA1ec7fGOomB/umaRo26wb6kPxqJB9qsPBLrqM3n3+efPv0X6zf305+fn7T0C+WpVWEw9IxqWAwIj/N2QdTOmeT3wU8HfP5qEJ4h8nZqLMVhMPBXmRokpKa0Ox8cEAOKWVFGJeWvX4YHDKzpIXPfhxhlxOTUTkcQ/3G0JpxsDCswmEKPN0HwTFXDY5qEzB9yVABh71GnLgUXm46nulV4eBpaU1ePgQOt2JwLMKi50jYGUpnHIAxjtJItSyN5etPqIED1Dz7WS84GnSdPCJHmiKDEMrYhLD36Nc6nzo4E60XnLCfgondMOSIuQgaKf4Qecuoievz4cwJdzO0YnCSzEvyOUsAvAiy6SHbrOX0IetOn7E5cHBw0Z0z4k8tlOVuimX3YY+8GrDVfA48PpyVyXMUOORVxsXZPyPhclFFpt/vQc9RB2zjORU4vDQofsrWZMh310rB0aDsOPieyAB5lETxxJ1GjedU4Dhl/7tGcEIIoI8thjVkjpQOnieLScoSNJ5TgeNBsfgpgWNXzlA4xw98p5IaMKErDeNR4BqTC+RwBGsgKqna+uchZDiAkm55SYIMYZb5mUrceE4Zjjw5iWoajhpkiUJpqqpnk5o+b40SODp5YUw+hHFbnVNnFI/Se3BNlD8jKZwDB+Kwbzq+pGOqpSfLViDwOkmfDK9atJH63TORST/I8+scjmDkSGGvLdPJO0yI0ybvCj0TNjYFEzgFzYJDiiUavegfNJmr2ODSYpXHFpS3jXM46WsYqY1lzBOI2o0qQcQNGaAwWsLEYYzZtRWUJElPbC4uYSzDobVJMgURLDb5CLTsekOYe/8CHBmbnNvyUgQL8Vj7wYgaNwMTp4mHyw2azqBwaFuUkRU8yN4UnMn6QUjgJFci5f7k0GgChxhVZnwTOIOzea2TJ5CaPH0cf3E9ZalJnxTfK9d4Z2WHHMGzGXAED3ppkCJwRvmhUjHi83m44rJLW0U33Z4IGzsgDoBx7XTdU2RA0QWVVYYj1kyr2pUnAqefH2qTP9afGn4GB//UV+EfeOpLPuSom0C2GeW3y3JNJ1TynBqHfAc4VuLLI7F8UArHySdjy7JjDzrx0LI03xFBPlCxsX6owAnLDQoCp6ZaTVywPjGyLFIHpelL4PQU2mevvchTizzDGPscM+qbA+ofFCACWfSbTphfeE6NS+RcmmUWK4MoywS8go0UV35mtWqfSkxsB9SKTUImxP+TFQdoqt54wj3hWHRtoze1sGBl2Wcho07hJOAWHdEyJXE44A5DAFVVBIbPk9jKM4zedPx8OMWiVSMIfI2nWWClVaPpKZ28x0HheEqy/tVc+z6dWEfAT3WoepoJQs2LcfYHQxD5YsPx94HDEKMMqJcXSxlyKjUpK/J0nMsshmJrDJhPJxHyZAgagzgEsa1jD4lzHsVsmvP3gdOfxK5aOFmelXllLssvFfp2Q4v/KdU3cNYhxcglxfkg6xDwTftk5sPJfTkpGbKifVCEI04W5eW44HVotMpfVVKoVmRC+px0nJmhSXYjNnV0phf1iirBiZrgFBa6aIzPkmWCJN1FRZvbvXsOZflSoEkzC54bugVDDhpKT7om2rjDiIWF+rIIh5w2zCzBgcP86mFh/rCTKCXQiTVq3XYC26Axw4FOoYpEDftRuJlxtl/gkYw1CVEWdbFnzhktmXAKHGe2oxcMRC9452RDy1nbfod3qQ0buMyWZIFJ0+SGNJBPmoYjJMo1TzVMRhQmnw2SWOTaecaXkqPUAmQpA47wSDkJtPsDJTXZBhOmSY9mtVqCSjRmeLaMMzZBCem9CGhUU/ohqTDMUfWpTvI62KMDNrNfY1NOLM6lVqXBolI2YeEtarVG/uujjfwOUh3y/HAUYhkLp6eIBioV1aw/RbAXsUQROaOaCpEtFkM98AMpTqOzRaeZHxJDwrHLyUoF2cjWoCWUGSAxp1hyydX9MH8H26G++ELYMhSYCRx8+/gGdZOE1sFyHhjTvFWMEepmZumI1v0xlhXhVCfA3sRT7WDkJ22IEDav7G2UJJU4k4j0FLDzdGnibnHBKlTG7UvEiSAtIoCo58kaw6xC7bcCsiMaQfo8jSQxRyPWQF4GHav2ZarBKnRD5wqqpBLqs9muFBKmRaYuYt1T1sSvq1Munp+KeCspfJt0R3FPVaCDRlmBMJq7b3uuCkT0qQ+rXeQVlc0mLTvScfeQmbTzkPzwR1uBU47O7tzLN/Zrn1R9mqLGfT2OcLaTLJyr3ADef0FWhJoFFSQBzQxUEDsjSprDVQQQXFMCgQdUCXCmZxHLQaxkgj7+M0UZsvoQJ6QysJGu8EN31MdT0VmBBSwg6zK2nViQrWDESsihK8Ihvrv7+0xkAAxHYXo8axPL6WH7UDxiOTanSrLcB5wIoOggDIfHpgEZzQCqB/QBCETgWEpvEIVAF0CggBXZr6M6ZOm8j0tKdKYiR4ppm0WB0f1t5wxxrgNk6tYxHA9fwYoJHIclqFnEAoHW564SJnA0MIiAJyZweGqugQxYpcZPtSMW0e9mjEgpYZMickTuES2wTBI61FpYl9iQbdIemh6ZMFRi5OAPyOB9ByEwQqBnmibQpNBVQI8DugYCA+i2GYJYBXoIoKaYzVupnlCBCfJKGGfK3oi024HWv38hkTY+RHJ+thteBcSQaCmffSjzfPK5hvADkHmRsSwgigzgGSDyioA/FiywIsloFMi04RT3DMeDjIpdEH5XcXGEf9w/WJu11KCuSLxnpXTDP6kmsMGzyYwSbRhU7tC671xjuBldPdaf8eEq1OZUoa4oELIx7NMvVsV5f9cq7SXCBqbf99L63XFaK9oQSHfC4XTZxcYTuXkgxxYlcelvirfAmpvdCIep/qasxCaLGpFlyn76jYjYg76NKwgZKDIQWH0EfQP7T7kHZ/towSKZjcDjMTKpxxB51yJvYfwWAyyRT0xStmSgRvQ1Y9EjkTMAjABkeWDhQ8ECE/hRpcEI2d5kY6Ri2R6MAxKQHdrLJFUYUjXSbeY0hhGqiZDoDySN6TkoHgBX9ogz1zh+ZAlDNwJOqI2AMVI9UtTKHj8CaePIG9BKw8F+ztNAJKHAR74NkIpWI1qlYhwfhWypC+7gJyqx2BIGHIRGqGko2WKDTeysX92jFvBA0ck04kLeMxExCAlndBZgVSAO8eeh6ACQLN+pZ7mHSQp4hFkiDYQcsAwgugCaxsOr36VKiSJTVF1I1xNIdPeNINRdsl0ZG4/vR4ZhBpDW8RFpz5cjvWsC3k3giDqZlBiOhTNfAkeBhNTAAQwpKXGNNUzh4KKC4iJwuCIcHqxc02fg+KEwQDiap1/4hj6UPFaCNZIqX3eQfZaVQcACx2WMyCCThh/akSP4rgxQxOJaoec4xA1bHudZskS+2CX3UUC2iYm4DnV9wY5kM5A1SeQDe/Gvtz2aBJWNQj5ETr8OSCIdjpBQ82DJWwJDHGsWiugPupxA/jdwpt7OYxZDT03+Y8hHK5PnVMQjd2Qj20CI4zXbMRF2NZmn1rnF75pfiT1/SxDDq5rhuDaHTMNwdT0IHKTiMugh19SMlYrPSxAjK8q8dbhOnTp16tSpU6dOnTp16tSpU6dOnTp16tSpU6dOnTp16tSpU6dOnTptkP4fBvgcyW/zWqEAAAAASUVORK5CYII=;" vertex="1" parent="1">
          <mxGeometry x="318.91999999999996" y="140" width="171.68" height="107" as="geometry" />
        </mxCell>
        <mxCell id="6mqftQX94FAFTjuM4J4H-4" value="" style="shape=image;verticalLabelPosition=bottom;labelBackgroundColor=default;verticalAlign=top;aspect=fixed;imageAspect=0;image=data:image/png,iVBORw0KGgoAAAANSUhEUgAAAQsAAAC9CAMAAACTb6i8AAAA9lBMVEX+/v4zMzP8/Pz////7+/v9/f0+hj0pKSksLCyCgoL4+PhyqWIZGRlwp2F2rWNinF3s7Ox3sGIhISFvb293tF7T09N1tlppaWlooFtrv0fy8vKrq6tcmVZzt1eTk5Non2NxuVO6urpWlU+VupJ6enqmxKTk7eTD18KpqakXFxduvE1LjUafn5/Hx8fV1dXi4uJXV1dRUVFERETX5NYAAAAufy1XnEthYWHf6d6yzLDI2saLi4s7OzuDr3+gwJ1Xn0olfCR0pm+JsoWLuX2mypq+2rTX6NGOxnmo1Zh5w1thvDdRpzReqElUnUdvvk1Mk0Rmq1CSvIfBtUsRAAATyUlEQVR4nO2cC2PaRraAxZwZHqpbVAglwVpcsMCmMeDEjgmmduLs7t27u0m79///mXtm5sxDIIzpuiDbOttNbCRNZj6dOc+xg6CQQgoppJBCCimkkEJeggDsewa5EZh2ChpaoHPZOCtgKIHooNQo9QoagWZRKh28axU0iEWpOmpGL54GsSiVKgeL8IXDsCwkjenLhuGxKFVqBYuChZaChZOChZOChZOChZOChZOChZOChZOChZOChZOChZOChZOChZOnxgK2qDhte+vDWOSl5AUwPRs/cDIAw/DBt0p5EAuAKBflUIBwMWqM2tMHTAZJ/PXqahA8ZNoAZ43KIdLYyELNYPR+/zQADiuVkqzNLja+cAj/9p8fvvuuX7/eOG2A8a+NUqnxfgydDSxoBnsvDgO03jfMRKuH984F4O8/vfoRWbyu9+8+brh1OtMEcIXdyn0svBlUDrpibzBQf9ujqp0pvsX1egrwPz/9/OpHyQJhxP3j9TVt1PmaG7bqUKyywBk0vRnsraeEU+76JEr36Ckain/88pefNIvvv6/XkcZ8zbRR5xuVUqYsswDeHaVvPTif7IEGQK/aWJ3tQZevzgX4/7755WfH4jXCeN0/yjIbaCjerw6byQJnUFq5tTqq7boVjdv03UHWdDP0FA3Fmze/LLOQNG6GK7dO20u6to4FwOQ8cwaVyukuYSxt0yU5eOfrKRqKf/7rzW8pFloxUK5ufS0C1PmD9SR8FgCdZO0MpPfZFQ0Qy9s0LdVR0rGTHv7jX2/erLCIY6Lx+gTc+rR7fgALCM4O7rm1OmpHO4IBs7U72ky6Qm4CLv4tUaywoF0iVeOO0a3R++xdt8oCOr9umEF1NN4JDAhHG+aM+6RFs757+yaTRWxhfLimW5NNhB2Lw423Vs93xGLjTEoNx+JrJovXZpPEH07o1vZ9puLJsGgcNJbW4Vj0+2tYxFox3q5nsWI91rNoLE9gTyww+O4sBwV2jxz1+5/uYxGX17GoNE6Xvco6Fo1fx60lB7sXFjopW/YBPov+b9ksFIzyGhY6ZlqKNrJZVOTZtuXAax8sKjOdrMskwvvYsfhdKUYmC4TRX8OCYmlKV+9lcSChgVDBiT+v3bN474UHidMMy+L7q6t+/5dMFn2kUc5mUbGxK8DZap7qs2jgrTC8kXUAmNqPK5XJzllUm16E6c3QZ4GSzaIf99excHFjVi0n9S9FwG7j+lF8NwRBH1czs6KdsjhdxwIVI4vF2/7bdSzcUmC6gcUUhv0jlHgAvKFJPKjItnsW333TipHJQskjsIgli/pcs9hlNrIdix++ffp0dVX++lvWHnlcFkov0BPvNEvdlsWn38vlTHvxWCz6dWTRn4MY7bp6sRWLH78iDLQK3zJZlJFFOYuF2MZ2Quc4ju8uIIDWrqtaW7L4+hXVolz+OVMvEEb5epVFY+J8as+NmsWiUuPoTS/mFOXslMT2LL5JFOVv2SzKmSxKsgICus7lB1BZsVal2oNtGnePKtuyKGv5yzoWmTG4DqzDxQNi8Hvr73+ybMXiFalFufx7Notypl6UVMLVW8pU1+Vm++sTbcmibOQ/27GQifjSB+tz9uz6+58vW7H46ZtlUc5m8WEtixWxLE6XWeyrT+SzGJ15LFqXqyz++sGx+JTJ4vMF3dq8v/ArWSzo1l5WlTFdf981i8pB6qfivBKCZdE5+uxgvHq1wuLDh4HxnpMNVXAc3FS3YZHVEKiOkl2bDUqBMv5pYF0q1RsW6BWv31rVuFpmUf58M3RRVZi5QqsUB13mRaOZPSX0PrttLxOLLJW0TSTLQn42+GBoLOVmH+oXKb2C6WxdiX3ZVazrNTZKu2kGmGlIFo1qtqkCmMjmosdC9rhuaKNc+Szevj1ZHmKpjuUtcTWEWNNaql7uNjc7qDTWH3VQlcdRC1IfXdS1ajgW/d9vs4YA9BErK8w+2iFDsZWWo4T2KKt8oMDs/tAGePd9J30d4KQsabw1LFb7yvbOTi1tCqoH6478rBSH9+BYN4X/WfkBiNvPSOO7H2Sf/ep731BA+n5coV/gv/coWMpsoFvjez+09SABGN59loqBWjFPkbi4OfoyTNOw3hkj8fuXZ81GlfK5pyG46vjz6++u/hb6JIZfZKMkvg3TFkY10h9SpVIZXKU6mu2syPk4AjDv/5+vAsAGSCK+iY/q9XlaNaLkoVUq3FTJbIdFzseSlGnAQOyofhSjGf14Fx/J0lTabDw4itxfAeORBOCj1Ad1bAv9TB2pLJuN/U1up6KqlEf12OwM2i2DvaTe+xUI5rLZ5R3zVFYUzcZKMPrMxRiK9PFf9DO+2QB4ItHCfyUwtIZi6YI0G/X4WCavMByczC+eOwyYS8swz8xoILyVF2Wta3AxuD4ZPm8YcNE/kq8+e5WglKaPbvbjyckATp45i0Hd1i3A/W2zErlRUDGGFyfXt+HzZxGT54ThMFQtoY8n88H85EJvGxjG0psMLsT1YPOvyHnSYZZkoZcIvN8/xkAL3Yc67hljHB5YFmI+n3c2rRPDlKf8e9l8FvX6MW6JPsZcCgXaETAsHhRZQ2d2Obp8t6sTz48uyyw4+tfBkDM+nCMM2S4nFg8Z61z9gFeJPVEYyywuYqkcSk7kl1uwgLGuFTcOnw+LW70dIIj7d1uxoEN+leSZsBiiuTi+HjLJQ4Qs2IYF/WBetf1MWIDKV+P47svgWhV5XzAL9QG6EcxR4/iWbbVHnh8L4Bfz25u7GJ1q/eZls2AUgrOPA3SqmMe/XBZ38ZFNSuYyE3nBLL7UURfcpRfN4iQ+kj/fLuUC90jnJbOAOyRwdHP85Qb/igebbSc4MSya3me7WsdjyAoLdqzTVJmezTfGFwDTcc9IU3eWq+f2k96Tap9JFiztU4fz45u7u5tjnaPfywJY87JhxTTZq+6j0fnGRD8/gs6C+oXEwtd6+U0w0AXP7Kc3/hhr5d0TYoEJiC78Wxb+VdkuMJso4+HwcgOKUmn0hH5FMlybfiFqyCA1b91XjI8+rlWL6eYfmm7s9MjWfynAVb/w7k7XbrwL6b5i1qPRw3+A/GkInbo40jU99+m8nu4rZj36fuPx4NETMp5ScDPcouc4cfFAdl9x9cHJvb9vQh7kO31aKALrO8Ih/RTMur7iynPTpLReNaql9lOyFp5gYFGPB7KipVuH2X3F5Yc2xJ1PE4VrMuuW8taNjiefj/hCxwykyUyfUHrg48+JhXIeKhv5Q0dQnhkLGVQMbud/7GjSs2OxfO53myefHYs/LgULJwULJwULJ16ste+p7F3MD6qaH1B8yQKRruxcPqks/U8SOLysVCuXz0YtBAtDjsLw/+oL+ZX8D4Uzob9gQn2CF4USeQ0vMph0k0ULGFc340ehGkxepbGY/k9+IvRtOATdwuxYDD/cNwgUoaeNC2OcUODMLAvGAj1lNX9GLNQa5F0qTpNPCaYXjCzkTd5YyFNfw0/xLm8s5o3F8sFCv0Riod6XUQOmJk9L0aqjlUQuiZnFcmIhX7geRK3WoNA6pLSAiDH779Bo8v58sOBGA9TkiQhTyitBCDdvbuavriglMEL0Qk67QEESdiyNT20TvjqYenjfIAJpL4xFoHemuJiJCk/zSQWE2kPEIuQhsw+q98s0RzecgUt0FUBmjZIClyMW8rUJ84fZ6t5uJnWn9QnSa1pmKNTWEIwZG6DUgEa0auMsg0ZjXgGBy4m9YG7RtHSt+p6VJKuwzEKYZSpuRr/SY5E/SQ2mPzCqky8Wnj1Xy1Za7ERpMJlXRlaS06c8dWeaBTO+1duBypLIDyUB45mUrc3FHuH+q/Ssm1Vw6xWE71fIkphwxLpibywmnOvhZm/YDciFQSTB5EMvuP8uubePyY0yu8mNRyQ/SDQ8+8hTY1lsxMJ6a2Lh61I+WDD/XTIWpMv7ELhQQjhF9x7QfoQ8zJJlEH40xcmyMrLLy4PtG0SgWXgSTlqTSauF/5GEZqX2Nn//c+Np7RduKO7phTeE+cKLLtSf+waBIkw2oiYXtGZnaekwf7GMnIpgJkExLBjFoGYkm4lw5kbgHhVyrDba3zeIQPkR7gRaZ5AW5TT8F6u2gg6bjSqYtTHuj6WMhHE3FKyJFA5mUjTcaTlhYRIGnBmyoJibWy0W5i2TryUDQz42tObTBJYyXdUbSYXk9O796JZ8tI77yf3mgoWMouVrkcGTZAEUYeotYRJwY+ScQdSu0NhUqwi0Out11APkhri90Y7FjP/KBQtrD+XUAsmC3rhmIVOOkGewIALMxZKe03WRBHcsVOAVplh4Af2+QQTSj9CuVbNOs6A8laIkFHSxgEsjxyu0IcAxmPrxE3m3viQsC2asDmV85lHHgiuFzEXSLgwI9YbkHmG0Dq3/0QSMNxQw6QQTxkGMF0myGHNQ+z2aCgjHi+YYYcD0NElqpxGQaYDpWdJMFr0wUGYUR5Dfd/FRt8tyxcLbI4oFVSJ0mNh5FwXaBjKYNANohzA97047nenprAVobMT4FFrnh9NOKIAvknHUicbNLtNJ3yJpRfLW85bSmjCpTeT3Z+cTIA7EguWDhfOqeo8Yc097fXpOcbMIZx2AJp+cRxAIecARVQFvGR+2EJAciMvfFYMPAvTaAWoCLNQvmcI9Fb6bBrjF8AEFH6J3EQiRQxZC2MqKshfCZg3yC+gt1F7gkODLhGY0C0HrEq49wvBsfNoO1faH2hgo2pYPcTZNgEL4YNrEZyc1oAgNWjW1SxyLPDhVFwvLabtYixrwOHG5RDn901NcGVDdWwUYcnG4rc6lesiYdQF2KEimEIwPqUQectxbAno9MM4FZoH6F83mzEWAYUNoZR+DyfumL+1IqX4ky/+JjEGhmQDVOSSmdgcR/KpdBiSRUScdwGqnpM0R1KIAeodgUlpIQqZDVxOC5YYFmQe1R0KbMRhPOm2D6JyHQr3PHrggAk5xV7QS7Wk6TfBSk7ANvHOuSgKM6r8QzZSiGb/E88fCJSQUX6B6BF4MLnd/F5oTtQyYTU3NT2oJvX0VOahHqdbH5YtHUyN/BZluoChlOGtOKSyxY9i0NxcsbC7lWJgs1ESS0E0OQU0ed4VnWoPpQlkFtUV6h2HHSZhEQhqU2VkrlMGXCuCglejvmakQ5ksvmJ2UyUdsOcs6VxgfRHojQNP1RPByVPNYzJKUdKQ9gM64225i8CXUgKC+Tw5lMKaS1nyxIFuh80aKtcwb00XLMIja05mGJvXCXkavubDeQnqJlNBeCiDojJNaqJO/ULYdO+PmQpkKinZ1F2HfJKiupVlw7VPJjKr5qVfHg3YE45qymTBTr5RsjLIXhgXGn1wXLLQtwdE0Z0QM43OMRPHJUFVUZTAGpmiYHxaCc684LRcnVD+MCpfK5C0w1YCudIjIYmz8oowa0I+A2iO4lihxLPAqBltn0k6qLFfAWQ86p2BtBGCYojsvOSp4itDW7nUtB4gMZeXSG3Tli1eehEFbfaPuUBFUoFnI1z9jmoWyNhhzwgxMYwH9chfQzQrTU5FaJNI1+H2TIL0wAQP37IX2jgLD57a8iQcYYWDKntQ6AZUp8G58+cp2yuXDmUpP9DX5jbMtKkFFNrbzyCRBkepT5YCF9pzU0eNgQkVb08Kos6MSe5mmynwEXzh52gAvCS6MXjAVjulrMqwScHgKprILXWSD+4QOZ2AcOglyykJPWO8R1x5RWUlNpts6oTrEi80A0y6drsg8lSm90EcNYNyWoYSs9UzPowCfwqxevn2BRgVtJeb/8peaq+97aFyonJMzFtz0czAYGqfl7AzMgRLMOMYYX2Ag0Ys4i3rajAbKf+jr4/PDKAzCSbcZyX0jOs1aC1UnmtSSUJV92otJJ+BRK6nZ9lyOWAidLZqGVtTrHaKoP9TfPV0G1BL2kAXGT4e1ZrPWC7XPjKbMltHDXi1pJmcTirsDVcdSH6jR7fdTVyyjdmQuWAjbz9Mhg9TiAAK9R1QVk5lDNrLM1wyZqVrq+mBI5W/1jk0L0qU4dKtZudl+3GvS6wnkhYWOJDjVGhi1Rk3B2muJcRWDk3EhgiE37RU7FkuNZR2TbhZwe8aH8h5tpPcNIpAsWAYLzr3dzImDMCy4x0KkWdizPaEdi3mv37EwWSrPUUPVdCkoRwttHGXeu9kjKjORLEyUrYtbIjTnTWgXuEZcqGJT+T/vLIo540OHekzGngsW2o+YLoBDQapNxUjbLpa1OsuC9MI/2WYq/O7lq4NvpltkdxbBzyMLTq1CfSgxpJXqNpLXDETb19PH8BjlEraVZCpC5iCrPqilm7CcmaqgMIdxrCrmiwWdmpEM3GELfUhzKQJQBT9uyn/WmgQ6v3etQzKpprUY6pb86lim/6rD3H2TCFxBkjyHQaE1wllRt9/tZcMi1Csy3WPmATUjGteUHos61zlioewErdoaeFcFZcxbgzkzwJnNJYz/NBdYaJfPTSlvZSxzLkztT6Hbifsm4Wo5drbMKK45m2kv2VPixpR6cRr5m+XBjALxZRHuRCOx2DeIgOyFen+mF2A3sVN2VZFx7TX/UFp6/9MusnpgWKQ3DtolQUUC1VXOCwvhmQiuIx+jF6kFhNYccKvhK7Y1tSE8TRJLY4XGMusYLj8Hc/xMUe1a/bXewPR1oL4X5nKg76Vra8cS7hNvLPVxoJ9jlkUe7MV+hVH4WrBQP6VgWOx7KnsXoY7JFyykFCycCM4LFiTmpywK21mwSIlNagoWgXeget9T2bsULJwQgYJEIYUUUkghhexO/h8aiPmoIinJYQAAAABJRU5ErkJggg==;" vertex="1" parent="1">
          <mxGeometry x="320" y="378.86" width="169.52" height="120" as="geometry" />
        </mxCell>
        <mxCell id="6mqftQX94FAFTjuM4J4H-5" value="" style="shape=image;verticalLabelPosition=bottom;labelBackgroundColor=default;verticalAlign=top;aspect=fixed;imageAspect=0;image=data:image/jpeg,/9j/4AAQSkZJRgABAQAAAQABAAD/2wCEAAkGBxMQEBAREBAQERAPEBASEBAQERAREBAQFREWFhYRFhUYHSggGBolGxYVITEhJSkrMi4uFyAzODMtNygtLisBCgoKDg0OGhAQGCsfHiUrNy0tKzcxLSstKy4tNSswKy0tLSsrLSstKzctKysrLS0tLS0tLS01KystLS0tLS4rK//AABEIANEA8QMBIgACEQEDEQH/xAAbAAEAAQUBAAAAAAAAAAAAAAAABgECBAUHA//EAEMQAAICAAMEBQUNBwQDAAAAAAABAgMEESEFBhIxEyJBUWEycYGhsRQVMzRCUmKCkZKywdEjQ1Nyc7PhFiRj8ZOiwv/EABkBAQADAQEAAAAAAAAAAAAAAAABAgMEBf/EACkRAQACAQIFBAEFAQAAAAAAAAABAhEDBBITITFBFDJRcTNTYYHB0SL/2gAMAwEAAhEDEQA/AOygAsgAAAAAAAAAAAAAAAAAAAAAAAAAAAAAAAAAAAAAAAAAAAAAAAAAAAqUNZtnbdeFXW61j8muPPzt9iKXvWkZtOBszX43beHp0nbHiXyY9aXqIm8RjNoNqCarz1UepUvBy7fWbXA7jxWt9jk/m1rhXpk9X6jk9TqX/FX+ZQtxO+sF8HVOXjJqK9WZgz3wvl8HVWvRKbJZhd3sNX5NEG++fXf/ALGxrpjHyYxj5kkRy9xb3Xx9JxKArbuOlyrl6KJfmHtXaHzLP/B/g6CB6a/6knC597/46PlVv61MkXV75Wx8uqt+bii/zJ+eduHhPScISX0op+0nkasdtSTCK4bfKqXwlc4eKymv1NzgtqU3fB2xk/m55S+x6luK3ZwtnOpRffW3D1LQ0OP3Ja62Htzy1UbNH6JL9COPcU74sjqloIJTtjFYKShfGUo/Ns5td8Z9vrJfsvadeIhxVvl5UXpKL7mjfS3NL9O0/BEssFWUOhIAAAAAAAAAAAAAAAAAAAAAxtpYtU02WPXgi2l3vkl9uRD929kPG2zvvblBS63058+HwSWRKd4MP0mGtgvKklw+M1JOK9LWRo9w9qRjx4eb4XKTlXnpm8spQ8+ntODcYnWrW3b+0eUypqjCKjGKjFaJJJJLzF4B1wuAAAAAAAAAADwxmDhdBwsipRfY/au5nP8AGUT2bi4uLbrlqvp156xfiv0OjtnPd7casViK6qcpcGcItcpTk1n6FktfOce8isRFo92eitk4hJNJrVNJp+DKnlhYpVwUXmlCKT70ksmep3x2AAEgAAAAAAAAAAAAAAAAAANZvLJrDWNPJp1tNdjVkdSL24KOM/aUuMMStbKtIq1r95B9j8CT7z/Fbfqf3IkETyaabTWqa0afeeZvJ/7xPbDO04lu9nb03Yd9HiYSmo6Pi6tsft5+n7SUYDeHD3ZcNsYyfyJ9SXm15+giUNtqcVDFVRviuUnpZHzSLXsnC3fA4l1Sf7u9aebi/wCzOmrqV9s8UfE91os6InmDnkNhY2nWifFHvpt0fobRf757Sq8qNrX0qlJfakbxu8e6kwtxOgAgC3txcfKrh6apr8yv+tMR/Dq+7P8AUn1un+5xQnwIA968ZLya4/VqnL8ynuzaV3JXJP5tca19rQ9ZXxEycSfzmks20l3t5I0u0N6cPVmlPpJL5NfW9fIi893MTZ1sTbGC77reL1ciscDgqfLtniZL5Na4YZ+L/wAlLbjUntXh+0TYx23MTjn0VEHGL5xhnm19OfYvsLJ1QwcJRjKNmJnFxnOOsKItZOMX87szK4nbUnHo6Yxoq+bXo355GqZyWt1znM/P+M5s6TgPgqv6cPwo9zxwPwVX9OH4Uex7de0NQAFgAAAAAAAAAAAAAAAAAAGq3o+K2/U/uRIIdA3gpc8Nalz4VL7slJ+pHP0eVvffH0y1AZAHGzeldsovOMpR/lbXsM2rbmIjyun6cpe01wLRa0dpTmW5jvPiV8uL88Il3+qcR/x/cRpAW5t/k4pbie82Jfy0vNCH6GNbtnES53Weh8PsMAETqXnycUr5zctZNyfe22/WWlCqKIyoUZcFHPRLNvRLvfcB0jAfBVf04fhR7nnhq+GEIvnGMYv0LI9D369odIACwAAAAAAAAAAAAAAAAAADF2niuhrdjWajKHEu+Lmk/UyM7c2Dl+2w646ZLiyjq4p9q74+w3m8/wAVs88P7kSN7E29PD9V9epvPhz1j4xf5HBubV4uG/ZS2O0tOVJs8JhMb1oNRser4coz9Me01OM3Suj8G42L7svsenrOS23tHWvWGc0lHgZWI2bdX5dViy7eFtfatDFMZrMd4VxIACAMnBYGy58NcHJ9r7F53yRttgbvO/Ky3ONXYuUrP0XiTfDYeNcVGEVGK5JLI69HazfrbpDStPlFcFudyd1uX0a1/wDT/Q21O7OGj+7cvGUpP2aG5B3V2+nXw0isNZ7wYb+DD1/qW07v4eE42RrylF5rrSaz78mzagvy6fCcQ8OhaXPP8yxoyiko5miWKC+cMiwIAASAAAAAAAAAAAAAAAANXvP8Vt+p/ciQMnm8/wAVt+p+OJAzyt974+mWp3XRk1k02muTWjRtcHvHiK8lx8aXZYuL18zUlDlre1e0qZmEtw++K/eUteMJZ+pmUt4sJZ5cWv560/WsyEA2jc389VuZKce6tny7KfTW0/YZeD2fhLVxV11TSeWajpn3HP6anOUYR1lJqK87eSOnbOwaprjXHlFavvfNv0s6tvfmTOaxhes8XhkxjlouS5IqAdrQAAAAAAABRox5xyZkllkc0BjgAsgAAAAAAAAAAAAAAABj4+mNlcq5PJWLhz7pN5Rf25HPcVhpVTlCaylF+hrsa8Cb7ySaw1jTaadbTXNNWRaZh4W6naEFC3qYiK0ayUn4x714HBuqRe2PKloiUOBuNpbu3U5tR6SHzoav0x5r1moaPPtS1ZxMMpiYUBUFUN5udhuPEcT5VRcvrPRe1kmq3jolipYVT/aRXP5LmudafzkRnZGLeHweNvj5UVGMX9JrJeuSIBXY4yUotqSfEpZ68SeeeffmdMbjkUrER36z9Mtbc8nERDvoMDYWO90Yem3tsgm/CXJ+vMzz1a2iYzDurOYzAACUgAAApJ5f41Zqobx4dqbU5ZVPhsl0VvDW9dJPh05MjI2wMPFbUqrq6aU/2Wj44pzjk3knnHPTM8aduUTlCCsylauKtThOHSJrPOLkkmMwnDJktWWnpctTzLKgAJAAAAAAAAAAAAABq95/itv1PxxIIpZZNaNcmtGid7z/ABW36n44kEPK3v5I+mV+7f7N3qtryjaulj3t5TXp7Tbx2hgsV8IoKX/JHgl97/JCAZV3Fo6T1hEXmE1t3VonrVZOPmkpxMK3c6fybov+aLXsI1XbKOsZSj/K2vYZte2sRHlfZ6Xxe0tzNKe9U8VfhvZ7vWRwOLobjKdnWhwt6yik0tfGJy/J8snnyyy1zzyyyOp7rbasutlXdPizhnHSK1T1Wi7n6jMe7VPuz3T0a1i5P5vTcS6/D35Zl9TbxrVrNPpzbjbc7E1ai+u7DYfZFULZ1OeLqquUVB8UZ12TknmnyaRj42zERr2xFYy//YLpcPLOHHxPDK3hnLh60VLPTuZMNobKqvdTtUm6LFbVwznDhsSaU+q1m8m1r3s8LN36Je6c4z/3iyxH7W3KxKPDlz06ummWh6Fa8MRDurEVrENTg9ozxeLnh5WTqjVgMJeujfBKdl7nxTz7o8CSXLNvPPQ1eB2rib/e1TvnW7MVj8Nc4RglcsPG5RtScdG+jT7s2SuzYFDdUspxnRX0VdkLbYWKr+G5p5yjpyeZdLYVGeHkoOLwmfQKM5xjW3FxbyTybabTzz5sssjFe0sRDC4pKyyx4baiw7teUrlhHZW5NZLrTUZtLTPzsbS2niMLXtLERstlRV0EMI7YpxjKxwjZZquKUYOWebeXNdhn7d3dSqccPQ7Y3YqN+KreIthbY0s+OubfVnxKvtWkcsyuxdgJdJx1X10W1Srsw2KxM8WrM2us1KUlDJKS0evFryRA9Z224fH4SqNs7acVVerI2PjcJ1RjJWxfYnm01y1WWXbgbmpOe0+LLh90T4s+WWc88yR4LY1VOTgptxh0cJTssslXXp1IuTfCtFy7l3HhVu5RFWJKzK552rpbMrG8/K18WRNZmUxOIQvZrl7y4vPPgVq6PP5vHXnl4Z5+sycW3D3psxHWpjXUq1VpONjjW05581ouWXImeK2RVZT0DhlTkl0cG4LJPNLTxPKvd+hOpuMp9AkqlZOc41pcsot5di1KcuVuOGbdzPMvs5lhuyAASAAAAAAAAAAAAADX7wUueGtS58Kl92Sf5EAOnkQ29sCUG7KU5QbzcFzh5l2o4N5ozbFoZ3hHgAeayAABk7NxbptrsXyJJtd8Xo/U2dPqmpJSTzTSafemcoRL9ztrZpYeb1j8E32x+Z6PYdm01cTwz5aac+ErAQPTbAAAAAAAABSTyRU8bJZ+gDzZQAsgAAAAAAAAAAAAAAAAAAGt2hsOq7NuPDJ/Kho/Su00GK3Vtj8HKM13Pqy/T1kxBz6m2pfwrNYlzm/Zt0PKqmvHhbX2rQxWjqJ5zpjLyoxfnimc87GPEq8tzMujJppptNPNNc0+86HLZtL501/ciW+9FH8Gv7qKeht4lHLn5Yu728CuSrsajd2dis8V4+BITVw2dTHlTWsvoRM2FmR3adbRXFpy1jL3BbGaZcXSADMACyViR5yszAunZ2I8gUJQAAkAAAAAAAAAAAAAAAAAAAAAAAAAAAAAArmUBAu4ijZQACpQEgAAAAAAAAAAAAAAAAAAAAAAAAAAAAAAAAAAAAAAAAAAAAAAAAAAAAAAAAAAAAAAAAAAAAAAAAAAAAAAAAAAAAAAAAAAAAAAAD//2Q==;" vertex="1" parent="1">
          <mxGeometry x="600" y="378.86" width="141" height="122.28" as="geometry" />
        </mxCell>
        <mxCell id="6mqftQX94FAFTjuM4J4H-6" value="" style="shape=image;verticalLabelPosition=bottom;labelBackgroundColor=default;verticalAlign=top;aspect=fixed;imageAspect=0;image=data:image/png,iVBORw0KGgoAAAANSUhEUgAAAOEAAADhCAMAAAAJbSJIAAAAvVBMVEX////u7u4AzP/t7e0Ay//39/f5+fn09PQAyf/8/Pzx8fH/8uz///3w7u707+0Azv//+fb/8+v78u4w0P/a9v2l5v//9/NL1/7a6vF/4fz4/v+L4vu97vzs+v3//vnO8/533f3M7POv6Pjk8PFa1fxe3P5F0f0k0/6Z5Pmm5veG3//Q9P3Q6fJ32Pq17f7w/P6a3PW25fXe8fPS7PLA6vSu4vaU3fhr2/+k6/1o3vy37vx92Pnl+v+/5PPG8v7UIEPWAAAc80lEQVR4nO1daXvaPLNmEYmDbBlkgsO+mDVpSFkamj40//9nvV7QaLwLAmnOuaIPvRphj3VbsmYfFQqi3RaPrQpdoqdcga6y6LoTPTfQ9SVJFQuXo/WN8BvhN8JvhN8Iv9SwroSwfGyIluhCtERDtET7oqRuRavciAZd0FOJd2Xd96VIyTm/EfDv4mulcuwqyzmviq7b+Fr5UqROQ4hWdVX0nDmsTyP1jfAb4TfCf0/qwwjP3QBzEBpB+6cIj12sCV3c+Bgp9LIoZY7bKO1/mFShKtrN3bHdQJfouavEu279P5vFh0XLttxmT1vrh2qTnU3KbbfuH7reOyynLknTbZb91j209TNJBU1CPUc+OnTmBDXTfly9nEnKazcG5eNn2yNVChohmjnZMX4JAfB0GVdv2HIoMCAyfX9pshNJHdvd36kWJekS1eZ/KfsXusWwFB3LEeWsY3B2OsJ2dxZDdyRZGjrssxHShpU8Gh8jedz4GE9AWFtZWirFErG2n4yQjtIB+iMyOw411BGmzx9AHHwqQuaYmePxMf7kXBXh0yRj/gS9xiciZNtcgN6Y5t1mLilvPWymufj8WTx8GkKDz9CIgs3PLCVsguZzL3858GV8wfu0XH4YIkmmH0WozMToQj7Y3cpff43ctv71OI+BJKWunkmqTB9sLQpPI/PH1ftT7zBYDfFiIctMUmn8UEAtSlELuuD6Cp5f/YAAzscV/dgKbNSZRDkIsavMSCelr8woRzUnf17anDFWNRjnNx15ATEdlkoqaBeSS4fymROHInHZHdGPaVQImI/q5TRSL4/hN+KuiPuGXggJ8a5cAT8P6en6wBkIn0x4YqduRHQLo8474WlxmSNnyaQapejbWCFSYlTtCVxlbtln6BYwhWTvaRNR7cmgDxFph+wdHidlFFbh6Sal5UuY1HFUhzk8sUM/AWEbhhR8FnH9kPd7w9D+T6yRHiXFeCuC72e1GSMVjGoLm5HpLpqrI5Qb6ZqGaeFhDSbh8a8ipOh2FnoHpYnDjTRlWt/DJK5TFvwFEcLTiOVEaIWGddMJT2MnRIqGhSJijinLMBfAp+9+GFdHeICHLXgWwkJhE+J02hsiRdfhL3VY5JmkYLMhc+dkhMAZEcKY8lgRPcXCD1gwZcPvuk0l9bII8etJ70iqyNehH0oLxnJIdcXLIj9Y0qgAoehCCCuntZrYH8i0ln/xDgtkxOoFtzRf8eQSe9DPfy5cvch/bLhJqGpSG7XEo+6PPVkOo9vKNARxRD1Sj6FPcMhhn00nxQTbJ/aVrRh6Fdj9O9CKfbaIlD5E80XMDa0UFrhHc1eogv+QvsL+dmXdQt8JhFZbCWGhgCVPYo5qIcjzLVXykLKduMVsGNdFuIYVp0dppTluB+hjJNYeL9vZhiYOK45wCzcNWGxUF0X4U6yWt/xhCVK98M4p/2tznjysGCnDASa1ujJCIZQCB1dxvvf2Ie4n2n+BkVzJj492OPpJCJcnICy8zOIQSYsaacNKQAib6QcQir4shG3xIK0Ro1XOINV/jkFc1NOHFSclEQ75BecQZCCgdScRwk5TjNFKIMUjEMlYF3uiVNozSNFhDCEaVTGL1GlSm+S8D0ZMPsom1cEAzWXdkC8yLmrFSUlZKj6qbKkNVqKS5I0RHrtU/Yf3eBItV7WUwyoqkAKE+5iqeVHd4myE+iBkUiPWrZSglRAuQGwTosbXQkhXURvc5ESEra+NkCcYyYdnIvySqzTRzUFa5yEcfkGEhpPA8D1V7ysi5GCleeAxWikIjTpSEgmezR8nILTPRngaP+RSauOK/NCg0kZe0jp9NJ9a4LhR4ofiLZGfCKESP8wKY4BYhwp0SYR6erxFOLhigRbm5LbWAPuuZ1fiOaEbghQXKhi5b8ZHlRVQIqEKCbCspj3BPpEhTPqkBmiJzphRKfSkBuXqT2pyqcFAt7i29rQUD5rGaCXrFgep/5KZwzxST6jLlTKVNGDQD0t/rowQdPyZGsIX5DkyXY3eJ7VD8s24roRwJK43r63jw5MUrRjYuL/jghRysZo7FUsUQ/ahamxUF0UIq8U8KCBsruRsBTbyIynkgjSxNTGNFBffv/tm46O6qB8frAmlQZRWHCEHC5m3NXFEqi1ZJJmCoJlhTYQdbnbtSAUq2Bl4kzK3B7Rr1hkmVUM/LfIXvOTD049EKhyvwjbvOMI34EsZw/K7yhSvRXcbDZF6l9NbauSSYoKJuqJewqgyEZ6YvdAEPW2ffl/Q1VxqEuCmGSHVH0v4VqOWTer2VnpmaifmYpzse2qAn4vliFrS318yx7Cb1BjjnFHG6lLpJxOaI7WB/mw+SOvHVawYyH+oFQPtIk1cvkN8fb5b3Yv28+cvv63H8g2UFnXOjQzJuyPdslf3kPZAyN/FPKSGOz+M8mrv0GisIm7uWCuFfl6Mfzw8OG0x1RGE0kz7CT5gXZgFSSeKkNLNZvn6334yN4mWHWoYa36IsTV5fux0G7d6gXLDQKNqww7+3/URgvePzAIG59M6NN5Xb3OiaQnzcyJOzSUyf/s12jruymVRP/7y+pEK0uFsbRhz1+Sts2rtLesjwJKQlkxr3/qzDThCV5DW2Ccg7MO2tuXbX69TU7souBBMopnT++5BFxtNyaSfEE9TAA3WthJCLi+Ps2Ta8Mf0jJioU/mhtAklB7JfBSX85xdNG9URYQI/hKYWqeB+eD9PRRbnFGfvR6vkUcGcfDxSoT0azsz8gaBmegk11tS27be3FrSp2zHzfjiNWMmcDQ+uQGSER3Ux3ULvvs5z+Fx0bn4/HSo+F6e0Tv1WE8R1/09nu+1k3J/wAG3+umOec/XSCO8aLW9jyQTnTthk30J2i04iKRiWl53GWBVJP63hZGJ58d2ZDypZrYcqvyRCo1b4M0l/arCtz1v3g6eDXujJAFvrNkYqYVi8ISm16pQ729GiNc9mQqRkd+Vy+ChCxp2OlpYv4Atb+8flxl2F/j1Iey9tlbIRyvoabtHG1DMdeqQqvx/3Ps7UB3cOMTH2HIScb6bp+TGW9bZ+cFx52/34g11LjpYMqWpGCSxsV3fwdpHjBtjuHbpv6TsbsaaNDyPkdLfP4HueOaoGMUreLT35/BlTTjjrwTsk03oRyxpNWt8lPzuYyP3TCQjj/JDx7TQJn+x6j3CeOxk5Q0ZMPWlQ2uTImpdDkXtcxpUnDmX6pOuZ/DDDJtCsJiXgucL/FP7/2Azd13yXAB/7J5R6aMpg9VklYj8BE808lu8YYBw2+mdUjSiXebUTp0c0a/hHlyr3nJVDGrC80H4pZIq4YVGLbVCKQyGkAY/ARDOus+VzQg6fu+e0gdTxvnzJm/FdzK3pArbf/f0LzCbaiCGEvCOnsAukkhFGxGUuzeBekhpCCGKwuXWZJ3V2dny5arOBJOW3XIScDaPvimj2wgk4QqEHK6eDcmaYIy8eypelhNCgcj/dY4QQMEZsf/gG1w8LOz64YfsUhAZdRxkEMYcjlyeIYUlFvyppcZTc0ktFaCQiRBGkJa2LNscBjOCVS1KDt2hkALGeTkDoLpmIGckcbvxISTGsd9j7fkhaYznGlVwOEYS1et2VUI0YwiIFUcH9hqU0ACHTWpEhUnrjZ2SxEnPcV0Sos0k4YU6z7rkICBQXSf4Fcotuys52HOHN4L4117w2n96PXCEhgpBVYT/VOuJxxg1YaOb16MtaRBaaNnnh4oGZCHsRO2Bp2avFlpZ84YDwt+RpwkwvEDLeW8xAnvYkvdnCiSAssrEk4BydhAxcjUSgRsvBWUYSrGwnHj8RR3gIvRlSarWTtgdgfFpX3CfvAZXiiLC+GcYz98lQvAexxdclU2zRwF8BsR/uThpb8BWDsk4IIzGdYBYzqkboIYCkNNkk12eQFsxhELKgS9Fj3gvFCzD+mCj4EbNzp4eiEUaSKf7gfpcMfp40o0PwRsWam1BSJ7EeeHbVCObM8fXmmLNkUYsC65s73t8cnMMlbdkMCYAv02geLFw53XIsaunSBGRHVr4GMckxAfBvKIx8Hnhu06wY6Gv32pAdN+i4uMxAqSMLT+HhNhpcSIh/z9BmiecakAhrhpxEP4FYh+GYGUJ8e4hJzl8ChNHv6ogQhZyT0m/GimkIixAtTGYuQi59ZaVBCOEg0yTnrRIkLtMl/DDztuMn+HOYpWre4QQrsr9LQ1gu1lE6C7Hes9XWe7kHMBnv5kszCOF7js2RlHYcKQRccozfbscr3LzOrItBcYKVtkhFyOSX7q61So5SB5ogeeT8l5RmDgghe8m1GRJSRJEKfA39sx4yiFg5yjTbSOuQP4REhIwiG5Ifp5qJELHEYl1+Py0dIeTTPICeeIDm0JCSH1kWxogZ5ijTzECD36cg5Ijj2um0ACG4S8gCeay9skcCYb2TtovipuHkFLaROb86oDUfcs0FTO513sabiLCKrCVtBYQyi3w+A4B+/IKIxdio2XtNHKlQl6N4g1i2Z54ZbeePihWlKcRuJyFsou3w6Ugr2/SwiC3BYAcUBhE+zF+j/l1DQOjpwhCxI+dkp2IQkZFhrrJck/xQQC324eVpy6MImF2fgTkxANrYZ6BHAbCn6pkQYqgvaklXGvw81/NrWXh3gnxAbMlcACGrwM/zo/iaVzesbpPoUHyPghBx43OchnCB3MnIXCd+9pa+ijItBQQNJccCQrlIfyghdHfKv9GhrIORRpzv+QhnaA5l4IVo/neqZC6AWFYN8v8RQqS2K9AKjCsRPcuiOLxgoO5XMkcGQngI3xh8pkoI7yCr/TGOEHZSEWOhgnAZ4gbm+CjGBgjvVaewJFLuhMoTridROigjlEbACYQDAkJQKshIGSFjIU3EPk7+EWHrBITTEMKDFfqtoI5QWFeIDdWNBEKZhqrdMhVaPhr+ilBoS/H9BgjnJyAMTBQCYWg7DeySiggfIFDkAH1xhC9KtALTnhMaZbgypIo8A28nhLDQRqqC1T8BIUT4mRLhkS8WJcIbFlMeU2MCcIDlioqrzkHo3SdND3KFi8yavPiJ43wlIBTFFeA71A4n1GWoAY8hs+hPJyEMP7MmxRPTOaFCRE1UsiHzXqxqhIzIW8g3ki21eU0yfXMn14p3Qf0khP59YHrAWs6CS4NI3qi4zFKEq+AiGZG3h6qoYpmne8xRpK8wrRSOkvdJCM0jwoA4UjDc7zCwkyq5IuuQlvUsLK5I8pYy1pM6QlzEQxOVMo4IT9pLQwhpKH8/iPJUQci2KMIvjrABculeGeFLaJh7wWV9hFRB+4VbWxgh/xH6baKMEKawpG0SEDZBvdKUazCG1SMiJjFAeJJMgxHSsDAYFNxSQEihYpbLYsRVGCEsU0i1zUPYCzsOiK0jhMboBLl0gBAiPS8g69WhU0BoSFsvWdSSdHxH6sjPagiX0VkaIIRFdoJu0UYI+T5yn19yKx9hXZp4rEOynUbuNcfvIg9hdC8R22mQJMFP0A8LEiHfRjdh8krzERp1KSVoi2Q7jVFFeSwdb8ElVI2A5X1XiKTY+7etdDmHRtwGkIbwKCb7pR5odAoDeTCzloV3G5of80VPqRoho328+CsjR2qTpS5kceoZk1JbdCNKBzg8Ztz6UptUK+WcPJ0Q9eor4qmRCmhIZOLgumGxOa8i5mPLL+AXRY66hqKtTWzt3rCkJYLYYGsb5knebVRYxNuZUhHizZFMiplZ09L7RBZPuLAhcrYq2ktFHRdvWH/gFo3BC3fl6CyEFDt1iVU0MjykB2SFJ6VuO0oLI5SrqY3s3y2OQwKUbN5QjuUW1+ohnTpyAGcgZBxX8COlSL3KqA84VBMWRM0EhDK30KvjABETXtUSFBJQzPdbaG2GEErd13pgUK+YWOkIOQvVhDPHkXqVMS93N+xSHd+lIGzKb9ZVwvvSAzysozl030Oe7+kdB1BIMVBb0CJy+DylIORsGa6zFRTkzPTjd0N3ELuRskphn7G8PxFnGDEcuDLO9h96QgJCCJI8mTNsQiCviQgZ/xGy2RJzzYu5CCOlYYknUCcgRH4h/285tj3FwUd8l+UD9vURyeAacGlgJAbeSOZ3cetRrR524rtjHQulKTPfQo9UIiGa/YPyKD+Uu1dgL5ARDtoYHbvhaqXFDD9+EKolhtBEQUPMq9LEdpIoj/HDQST4i5gHiCDIrhqhNyISJTH3jSBsQtRnQMzwOQh+wIJ7uACFftdJLOFOzA4PH/gB/rqSNggeJwuXTkSVimAIvDmKhvaS2bapXjWiFQ1/0faBQBZcVJaqEdmJ5YPrGZclKa81EuNpNgEfBD9+W4r+b4JPwd5qQfm0YplRPo5Wqicun2KnREF3Y14X95UfdFGCDAX39I9dFDlYjyFoSJh0YjFRPS7iIMSwpHxAwFJ2gM8dPBGcP3TMeGX0LjVOi/N+iZYe9za+/YpR71tmVWkQ6IORRKIWNdVwQDUb3U+PcW2t+0E7HpyNgqpkxbKmjGsTMz3exxY9IdNqSgnGrEj2gR3HSLTp2OEcSWwD2MZR3oR25EohlcegtF6vpyZJIIHUkvc14XPQdK/g/Woaz08gZDaKLHjFWP12NPgvmEhrsizCBjB7QUn0LTRGFkPoNyPVqPUHcQoKF1XAU05+t39PrKTAc2vBogteNRuBOp0kit55OeL/HVwmoCLjL1s0GWGqyQfda1OZkX4rwznMpCQat6fT1hWzEeIIiwZ3WpmHdZBGqBCCrMpGuvw0hEhx26FM2Fu6znq+Zg1f4sshDSHmFsdhuTyXPizM9CNEzMVTn1JueJUcymHlrlrOKUARGtZf+W5CeaLNccytj+bPvO8lvKwIwtyqEZVm7beVntXlbo3D9chp1mqV2s0NSpl5bOYUoMDPa8s1Or+t3d72+/3aYbAepuc9eSLz8qZ2qaoRvb9TM+NRxM/K+1MuMmwtOag6jKplhlxYXb3dbndb+4mVkaTn/tB6qnAjTioutcEHkpnpzOn2Z2LGikTpzqZpD6XL1DMRKmYj0LWkZP4a2vPsLFr3UfZ94+K53MwTJaz0mRRA0R+LQ69YdUUEzjnDlT/8xoMjL9wJ6zlOKC45O4vUWzCdQzvtZX0AodsYdbadjG0nNhhzPrf3//33+LhYLFbdP0+D98Phabvdec3tWjw+Pv432c9NZeO4lyPbGfRCo7okwqJ3sEih3bHyhwIjgqbJdnZON7E7mzq9bt1En9ZEfUyXbWRJP+WcGanrfqjKhyoq9AyyVz0r6GMIZSbScrmfZSd4fxieKwW3lhAH5IVrfULVCGB5mqtkVJ3dwja1S1f/OHKf+WLgZQOCwdncGlevGoGiCI7W1JqrFFW3i//2dukSOP1VadrPnd9PnqJVcSEZdfGjdv2qEYWyQeGrWB1peeFfnLJqo/G3ZdteIYizcAanydl2a/fgvNzhUYHD3FeNk0Ylui5xdh6TWavvYVrHt1XrPXXXrxEWrlL8437V3TpV6gnykYp0XMrln4BQhqzMeokIC76Qh6sGdoat1sRtM69NZpOgDfetYQelP9x78o5hREgFDnOw7HmK/tURgpF2oqchvC2zolSdLe9NUO4Kb4xVq5V2reaftKdzXpfpPGSqZ1QVBLFOG1wfoYzS7ERohYaF89BK7WRSFKXo+Gm1qQil7btzdYQohvE9C2HI67y/SyKFw2aCqOVUhFzWK08kdUmEHE600m4zERp1aTjXFonHDslAB22YRQoljnlp/ucjVOKHXESYiKyT1EOaDHn4Tan0TmOkcIGJSTuTVJkZyBt8Kj88sZJkH1jTvpZ6X9DV/ytt2NbmLkIKH9xlbmrZpG4qYFN8aObaXdSqRoTXCir1ABLNYyzjthwlheJg7bDDvExRtBH5S/NIyRP7lvHDIkNS27HrA5I3KIdjFECRghBFn0Lmz1GZdhAnHCoUsL+HzRRZi6+hW1QhJdDcKSBEh3eLRF6fFEN2C2ILF40SwtmVETIZkrBVQKiP0FpcAynG0OSSA4sPK0bqj7jeujZCsGqbjpGP8K4uQ2yPB2t7pPBZAqWV0tkIkEdjVq98+gMgtOIe8wSEqGSAVy44IMVbchv1WL0Kwhfx/Zub6yKUp/TZaghZEafevnikKD4sYZ88rBgpHRDGj6W9JEJ0vsWbKFORjbDMURwKmfVdvQNFVwaViBK2+DgpkJDWmQgTuEXW0RC4PkPQmlIEFlUcEo7DCJFqrtCUPd7VcOiwdYgdh5FCSgc+PIaQhXgtiyRSEqqS1AbnruGT5VJELSCFs/w7tzhzfsfzTA+ClDyV7B7CTq5T+xIya7qSVmxRR0lhBxl2RwbxPWpn54F2ceXTAdugO2WenRcllWhDDiLUFRFKif+iZ+ddDGEhKSBgf8r5h1J/+qIIezGIwcHs/3/msDCKhAMQqweheEoI/351hHQUAZgZQPF/cQ6LdXxQAJkdMod1pe9QiR8mIczjh17D6oTbrJUiExOkMMIT+aGAWpSiFnTF6jMY8qyQv3G1NYMUPUQYBhlLLShBmIyR0n8DQim1xZfKJc/Og8RthdMBXeE0loxoylRVqHCgdHbeq4rkfYlzSBfKZ+e5M+gk8UOAqHR2Hpxv8/PK+iFI3lM17cm/aZSYThrkVqkihM94fGWEj6cjpNuUc7m1SV8dofVJCBmEe1pcxYrhxeEscEaLiQ0YZHJQRSiLYm2vjFBGH6pYolwdv47LYxCy6v9Ekftk3lNECElipnNlhI2TrIl33MFskJiHQoXuQllKazWE4s2eYU0EzqgYqQAZcz+ProisozX1kDjqFbnz7DS/Qp2tAlSpyCCFvv+kUQHCOKlCVhGGpLoMsqzvTe61N6FatsTcBrUhal3crdkbhTIV4LcYn1DTwm8S6om+J3FMaqqoVQyv0OAEyyOpp1ConikPqUuR2mSh1jN8T5KWWMLZ/kM4ajGUnhz+bAP/4TJc6nXq5wUeSYUhCjkl3QcMVhrrcHUvt6y2ZB3CtPCLL9Y3kWynYT10sEg7JKeSIM89DaF0c3j1n66NkMsktU4qQs4iE0gWwmQhSN0Nwxe8HdIRyvQOT6W5NkLmyLnppSDsr8PVpIk1iCt1+jKcBWjet2vJCGWGzqfE0+DkH985HUOoN/aRStt2L/GT7s7D0zjfMZYQT2PIY1r8ZXN1hEwGZZPndhzhYRhJXySPLykL3pmHp5rYuzqNICwbdZn373/65yMEL2g2QlyHzrNGhBD2BvNo1pw1SCXFY8XftflrlXKMkCKe41eXvegcJtdn4F0kdVnLGy/WyT9jrj1oxRIz3BWqp5My6CiiORIyG/6pcl20yhh5i82XdFJBkwih64z40nDpBVdbuF+9d7ur+2k8/YOYvyjLJFVod2Kpktp8/3M9chxnu3vFS+J4nnsqqcJlTun0Wi/CCgj8GxnrfsOjW0dCOceEgzSIF4hplkLJD2RYzyN1qUh2rzpHktIeaZo51pXK990mHIYSb0E1iM9CWBgo1Hhe6Mo5M9th7isjoj7IJyEMV5dIGE9pOlAl5RWCobtZTjaONYqdjXBdhIVdBkRxDNMp58zwdexolRDAHlUldSmETWeSXA+CEKsTPd9CZVic7fYpaVWkNDyJ1GUQVhkfxXKgvBwC+5fTP5FU8LfBm437BI7jco+G8iedgPAcfujTKpc53z37R9wBuvnz0hVJziAFTExvdPYyT8an2Xk6jxQMIiOMAWIdKilBErp+6Lam/mGUlv22bhxcKeRMUiJ047bJHkYd2/Zpzqatv0V+eyapzKoRQYMVnCUB9in3UgwppR8mdRQmg9MB+/2aK+81+YdIFc/RLdKGleM/PGlYIXPBx0hdDmGeh/RfkfpG+I3wG+G/J5VXNeLMYX0hUgpVI9RzMb4mqY9IbVH56GuSOl/yFj0KkQr/lNQ3wm+E3wj/PalvhN8Ivz7C/wHs49i+HEbtlAAAAABJRU5ErkJggg==;" vertex="1" parent="1">
          <mxGeometry x="30" y="377.72" width="122.28" height="122.28" as="geometry" />
        </mxCell>
        <mxCell id="6mqftQX94FAFTjuM4J4H-7" value="" style="endArrow=classic;html=1;rounded=0;" edge="1" parent="1">
          <mxGeometry width="50" height="50" relative="1" as="geometry">
            <mxPoint x="160" y="410" as="sourcePoint" />
            <mxPoint x="310" y="410" as="targetPoint" />
          </mxGeometry>
        </mxCell>
        <mxCell id="6mqftQX94FAFTjuM4J4H-8" value="" style="endArrow=classic;html=1;rounded=0;" edge="1" parent="1">
          <mxGeometry width="50" height="50" relative="1" as="geometry">
            <mxPoint x="310" y="470" as="sourcePoint" />
            <mxPoint x="160" y="470" as="targetPoint" />
          </mxGeometry>
        </mxCell>
        <mxCell id="6mqftQX94FAFTjuM4J4H-9" value="" style="endArrow=classic;html=1;rounded=0;" edge="1" parent="1">
          <mxGeometry width="50" height="50" relative="1" as="geometry">
            <mxPoint x="500" y="410" as="sourcePoint" />
            <mxPoint x="590" y="410" as="targetPoint" />
          </mxGeometry>
        </mxCell>
        <mxCell id="6mqftQX94FAFTjuM4J4H-10" value="" style="endArrow=classic;html=1;rounded=0;" edge="1" parent="1">
          <mxGeometry width="50" height="50" relative="1" as="geometry">
            <mxPoint x="590" y="470" as="sourcePoint" />
            <mxPoint x="500" y="470" as="targetPoint" />
          </mxGeometry>
        </mxCell>
        <mxCell id="6mqftQX94FAFTjuM4J4H-11" value="" style="endArrow=classic;html=1;rounded=0;" edge="1" parent="1">
          <mxGeometry width="50" height="50" relative="1" as="geometry">
            <mxPoint x="360" y="370" as="sourcePoint" />
            <mxPoint x="360" y="250" as="targetPoint" />
          </mxGeometry>
        </mxCell>
        <mxCell id="6mqftQX94FAFTjuM4J4H-12" value="" style="endArrow=classic;html=1;rounded=0;" edge="1" parent="1">
          <mxGeometry width="50" height="50" relative="1" as="geometry">
            <mxPoint x="440" y="250" as="sourcePoint" />
            <mxPoint x="440" y="370" as="targetPoint" />
          </mxGeometry>
        </mxCell>
        <mxCell id="6mqftQX94FAFTjuM4J4H-14" value="" style="endArrow=none;dashed=1;html=1;dashPattern=1 3;strokeWidth=2;rounded=0;" edge="1" parent="1">
          <mxGeometry width="50" height="50" relative="1" as="geometry">
            <mxPoint x="240" y="80" as="sourcePoint" />
            <mxPoint x="800" y="80" as="targetPoint" />
          </mxGeometry>
        </mxCell>
        <mxCell id="6mqftQX94FAFTjuM4J4H-15" value="" style="endArrow=none;dashed=1;html=1;dashPattern=1 3;strokeWidth=2;rounded=0;" edge="1" parent="1">
          <mxGeometry width="50" height="50" relative="1" as="geometry">
            <mxPoint x="240" y="80" as="sourcePoint" />
            <mxPoint x="240" y="600" as="targetPoint" />
          </mxGeometry>
        </mxCell>
        <mxCell id="6mqftQX94FAFTjuM4J4H-16" value="" style="endArrow=none;dashed=1;html=1;dashPattern=1 3;strokeWidth=2;rounded=0;" edge="1" parent="1">
          <mxGeometry width="50" height="50" relative="1" as="geometry">
            <mxPoint x="800" y="600" as="sourcePoint" />
            <mxPoint x="230" y="600" as="targetPoint" />
          </mxGeometry>
        </mxCell>
        <mxCell id="6mqftQX94FAFTjuM4J4H-17" value="" style="endArrow=none;dashed=1;html=1;dashPattern=1 3;strokeWidth=2;rounded=0;" edge="1" parent="1">
          <mxGeometry width="50" height="50" relative="1" as="geometry">
            <mxPoint x="790" y="80" as="sourcePoint" />
            <mxPoint x="800" y="600" as="targetPoint" />
          </mxGeometry>
        </mxCell>
      </root>
    </mxGraphModel>
  </diagram>
</mxfile>
